<svg xmlns="http://www.w3.org/2000/svg" version="1.1" xmlns:xlink="http://www.w3.org/1999/xlink" width="1080" height="1080"><svg xmlns="http://www.w3.org/2000/svg" xmlns:xlink="http://www.w3.org/1999/xlink" width="1080" zoomAndPan="magnify" viewBox="0 0 810 809.999993" height="1080" preserveAspectRatio="xMidYMid meet" version="1.0"><defs><g></g><clipPath id="SvgjsClipPath1020"><path d="M 405 0 C 181.324219 0 0 181.324219 0 405 C 0 628.675781 181.324219 810 405 810 C 628.675781 810 810 628.675781 810 405 C 810 181.324219 628.675781 0 405 0 Z M 405 0 " clip-rule="nonzero"></path></clipPath><clipPath id="SvgjsClipPath1019"><path d="M 0 0 L 810 0 L 810 810 L 0 810 Z M 0 0 " clip-rule="nonzero"></path></clipPath><clipPath id="SvgjsClipPath1018"><path d="M 405 0 C 181.324219 0 0 181.324219 0 405 C 0 628.675781 181.324219 810 405 810 C 628.675781 810 810 628.675781 810 405 C 810 181.324219 628.675781 0 405 0 Z M 405 0 " clip-rule="nonzero"></path></clipPath><clipPath id="SvgjsClipPath1017"><rect x="0" width="810" y="0" height="810"></rect></clipPath><clipPath id="SvgjsClipPath1016"><path d="M 0.0390625 257 L 252 257 L 252 572 L 0.0390625 572 Z M 0.0390625 257 " clip-rule="nonzero"></path></clipPath><clipPath id="SvgjsClipPath1015"><rect x="0" width="617" y="0" height="729"></rect></clipPath></defs><g clip-path="url(#6b6dd9b4f7)"><g transform="matrix(1, 0, 0, 1, 0, 0.000000000000039746)"><g clip-path="url(#0341f3078d)"><g clip-path="url(#29e479f163)"><g clip-path="url(#0a4805f02f)"><rect x="-178.2" width="1166.4" fill="#000000" height="1166.39999" y="-178.199998" fill-opacity="1"></rect></g></g></g></g></g><g transform="matrix(1, 0, 0, 1, 119, 0.000000000000039746)"><g clip-path="url(#ea58c0dc02)"><g clip-path="url(#d482fcc1cc)"><g fill="#ffffff" fill-opacity="1"><g transform="translate(0.584964, 571.212298)"><g><path d="M 62.890625 -125.765625 L 62.890625 0 L 0 0 L 0 -314.125 L 251.234375 -314.125 L 251.234375 -251.234375 L 62.890625 -251.234375 L 62.890625 -188.65625 L 251.234375 -188.65625 L 251.234375 -125.765625 Z M 62.890625 -125.765625 "></path></g></g></g></g><g fill="#ffffff" fill-opacity="1"><g transform="translate(277.011838, 571.212298)"><g><path d="M 314.125 -251.234375 L 314.125 -62.890625 L 251.234375 -62.890625 L 251.234375 0 L 0 0 L 0 -314.125 L 251.234375 -314.125 L 251.234375 -251.234375 Z M 62.890625 -62.890625 L 250.625 -62.890625 L 250.625 -251.234375 L 62.890625 -251.234375 Z M 62.890625 -62.890625 "></path></g></g></g></g></g></svg><style>@media (prefers-color-scheme: light) { :root { filter: none; } }
@media (prefers-color-scheme: dark) { :root { filter: none; } }
</style></svg>