<svg xmlns="http://www.w3.org/2000/svg" xmlns:xlink="http://www.w3.org/1999/xlink" width="1080" zoomAndPan="magnify" viewBox="0 0 810 809.999993" height="1080" preserveAspectRatio="xMidYMid meet" version="1.0"><defs><clipPath id="16751c7dfb"><path d="M 10.097656 10.097656 L 799.902344 10.097656 L 799.902344 799.902344 L 10.097656 799.902344 Z M 10.097656 10.097656 " clip-rule="nonzero"/></clipPath><clipPath id="06654da836"><path d="M 85.097656 10.097656 L 724.902344 10.097656 C 766.324219 10.097656 799.902344 43.675781 799.902344 85.097656 L 799.902344 724.902344 C 799.902344 766.324219 766.324219 799.902344 724.902344 799.902344 L 85.097656 799.902344 C 43.675781 799.902344 10.097656 766.324219 10.097656 724.902344 L 10.097656 85.097656 C 10.097656 43.675781 43.675781 10.097656 85.097656 10.097656 Z M 85.097656 10.097656 " clip-rule="nonzero"/></clipPath><clipPath id="bfe1f697b6"><path d="M 0.0976562 0.0976562 L 789.902344 0.0976562 L 789.902344 789.902344 L 0.0976562 789.902344 Z M 0.0976562 0.0976562 " clip-rule="nonzero"/></clipPath><clipPath id="112b16af59"><path d="M 75.097656 0.0976562 L 714.902344 0.0976562 C 756.324219 0.0976562 789.902344 33.675781 789.902344 75.097656 L 789.902344 714.902344 C 789.902344 756.324219 756.324219 789.902344 714.902344 789.902344 L 75.097656 789.902344 C 33.675781 789.902344 0.0976562 756.324219 0.0976562 714.902344 L 0.0976562 75.097656 C 0.0976562 33.675781 33.675781 0.0976562 75.097656 0.0976562 Z M 75.097656 0.0976562 " clip-rule="nonzero"/></clipPath><clipPath id="8b3f36107b"><rect x="0" width="790" y="0" height="790"/></clipPath><clipPath id="2bdcf0d0ab"><path d="M 98.78125 298 L 559 298 L 559 668.519531 L 98.78125 668.519531 Z M 98.78125 298 " clip-rule="nonzero"/></clipPath><clipPath id="1a029a8db5"><path d="M 235 151 L 711.53125 151 L 711.53125 552 L 235 552 Z M 235 151 " clip-rule="nonzero"/></clipPath><clipPath id="12d0393477"><path d="M 326.019531 433 L 374 433 L 374 481 L 326.019531 481 Z M 326.019531 433 " clip-rule="nonzero"/></clipPath><clipPath id="3c07dc61f7"><path d="M 381 323.019531 L 429 323.019531 L 429 371 L 381 371 Z M 381 323.019531 " clip-rule="nonzero"/></clipPath></defs><g clip-path="url(#16751c7dfb)"><g clip-path="url(#06654da836)"><g transform="matrix(1, 0, 0, 1, 10, 10)"><g clip-path="url(#8b3f36107b)"><g clip-path="url(#bfe1f697b6)"><g clip-path="url(#112b16af59)"><path fill="#313862" d="M 0.0976562 0.0976562 L 789.902344 0.0976562 L 789.902344 789.902344 L 0.0976562 789.902344 Z M 0.0976562 0.0976562 " fill-opacity="1" fill-rule="nonzero"/></g></g></g></g></g></g><g clip-path="url(#2bdcf0d0ab)"><path fill="#ffffff" d="M 509.957031 559.105469 C 480.441406 581.859375 443.472656 595.386719 403.332031 595.386719 C 306.773438 595.386719 228.507812 517.128906 228.507812 420.582031 L 291.503906 420.582031 L 202.210938 298.296875 L 98.957031 420.574219 L 155.417969 420.574219 C 155.417969 557.480469 266.402344 668.46875 403.328125 668.46875 C 462.1875 668.46875 516.25 647.957031 558.773438 613.691406 Z M 509.957031 559.105469 " fill-opacity="1" fill-rule="nonzero"/></g><g clip-path="url(#1a029a8db5)"><path fill="#ffffff" d="M 235.871094 223.539062 C 290.128906 169.800781 368.390625 141.777344 449.574219 154.738281 C 584.765625 176.335938 676.855469 303.433594 655.265625 438.628906 L 711.027344 447.527344 L 589.78125 551.996094 L 520.894531 417.167969 L 583.089844 427.109375 C 598.316406 331.761719 533.375 242.144531 438.046875 226.914062 C 377.058594 217.175781 318.410156 240.246094 280.074219 283.078125 Z M 235.871094 223.539062 " fill-opacity="1" fill-rule="nonzero"/></g><g clip-path="url(#12d0393477)"><path fill="#ffffff" d="M 365.507812 433.589844 L 333.917969 433.589844 C 333.398438 433.589844 332.886719 433.640625 332.375 433.742188 C 331.867188 433.84375 331.375 433.992188 330.894531 434.191406 C 330.414062 434.390625 329.960938 434.632812 329.53125 434.921875 C 329.097656 435.207031 328.699219 435.535156 328.332031 435.902344 C 327.964844 436.269531 327.636719 436.667969 327.351562 437.097656 C 327.0625 437.53125 326.820312 437.984375 326.621094 438.464844 C 326.421875 438.945312 326.273438 439.4375 326.171875 439.945312 C 326.070312 440.453125 326.019531 440.96875 326.019531 441.488281 L 326.019531 480.976562 L 373.40625 480.976562 L 373.40625 441.488281 C 373.40625 440.96875 373.355469 440.453125 373.253906 439.945312 C 373.152344 439.4375 373.003906 438.945312 372.804688 438.464844 C 372.605469 437.984375 372.363281 437.53125 372.074219 437.097656 C 371.789062 436.667969 371.460938 436.269531 371.09375 435.902344 C 370.726562 435.535156 370.328125 435.207031 369.894531 434.921875 C 369.464844 434.632812 369.011719 434.390625 368.53125 434.191406 C 368.050781 433.992188 367.558594 433.84375 367.050781 433.742188 C 366.539062 433.640625 366.027344 433.589844 365.507812 433.589844 Z M 365.507812 433.589844 " fill-opacity="1" fill-rule="nonzero"/></g><path fill="#ffffff" d="M 420.792969 386.203125 L 389.203125 386.203125 C 388.683594 386.203125 388.171875 386.253906 387.660156 386.355469 C 387.152344 386.457031 386.660156 386.605469 386.179688 386.804688 C 385.699219 387 385.246094 387.246094 384.8125 387.535156 C 384.382812 387.820312 383.984375 388.148438 383.617188 388.515625 C 383.25 388.882812 382.921875 389.28125 382.636719 389.710938 C 382.347656 390.144531 382.105469 390.597656 381.90625 391.078125 C 381.707031 391.558594 381.558594 392.050781 381.457031 392.558594 C 381.355469 393.066406 381.304688 393.582031 381.304688 394.101562 L 381.304688 480.976562 L 428.691406 480.976562 L 428.691406 394.101562 C 428.691406 393.582031 428.640625 393.066406 428.539062 392.558594 C 428.4375 392.050781 428.289062 391.558594 428.089844 391.078125 C 427.890625 390.597656 427.648438 390.144531 427.359375 389.710938 C 427.074219 389.28125 426.746094 388.882812 426.378906 388.515625 C 426.011719 388.148438 425.613281 387.820312 425.179688 387.535156 C 424.75 387.246094 424.296875 387 423.816406 386.804688 C 423.335938 386.605469 422.84375 386.457031 422.335938 386.355469 C 421.824219 386.253906 421.3125 386.203125 420.792969 386.203125 Z M 420.792969 386.203125 " fill-opacity="1" fill-rule="nonzero"/><path fill="#ffffff" d="M 476.078125 409.894531 L 444.488281 409.894531 C 443.96875 409.894531 443.453125 409.945312 442.945312 410.046875 C 442.4375 410.148438 441.945312 410.296875 441.464844 410.496094 C 440.984375 410.695312 440.53125 410.9375 440.097656 411.226562 C 439.667969 411.515625 439.269531 411.84375 438.902344 412.210938 C 438.535156 412.574219 438.207031 412.976562 437.921875 413.40625 C 437.632812 413.835938 437.390625 414.292969 437.191406 414.769531 C 436.992188 415.25 436.84375 415.746094 436.742188 416.253906 C 436.640625 416.761719 436.589844 417.273438 436.589844 417.792969 L 436.589844 480.976562 L 483.976562 480.976562 L 483.976562 417.792969 C 483.976562 417.273438 483.925781 416.761719 483.824219 416.253906 C 483.722656 415.746094 483.574219 415.25 483.375 414.769531 C 483.175781 414.292969 482.933594 413.835938 482.644531 413.40625 C 482.355469 412.976562 482.03125 412.574219 481.664062 412.207031 C 481.296875 411.84375 480.898438 411.515625 480.464844 411.226562 C 480.035156 410.9375 479.578125 410.695312 479.101562 410.496094 C 478.621094 410.296875 478.128906 410.148438 477.621094 410.046875 C 477.109375 409.945312 476.597656 409.894531 476.078125 409.894531 Z M 476.078125 409.894531 " fill-opacity="1" fill-rule="nonzero"/><g clip-path="url(#3c07dc61f7)"><path fill="#ffffff" d="M 404.996094 323.019531 L 397.101562 338.816406 L 381.304688 341.121094 L 394.46875 351.980469 L 390.355469 370.40625 L 404.996094 359.878906 L 419.640625 370.40625 L 415.527344 351.980469 L 428.691406 341.121094 L 412.894531 338.816406 Z M 404.996094 323.019531 " fill-opacity="1" fill-rule="nonzero"/></g></svg>